<?xml version="1.0" encoding="utf-8"?>
<!-- Generator: Adobe Illustrator 19.2.1, SVG Export Plug-In . SVG Version: 6.00 Build 0)  -->
<svg version="1.1" id="layer" xmlns="http://www.w3.org/2000/svg" xmlns:xlink="http://www.w3.org/1999/xlink" x="0px" y="0px"
	 viewBox="0 0 652 652" style="enable-background:new 0 0 652 652;" xml:space="preserve">
<style type="text/css">
	.st0{fill:#357E54;}
	.st1{fill:#44AF65;}
	.st2{fill:#123C36;}
</style>
<path id="Fill-1" class="st0" d="M66.4,320.8c0.5-0.2,1.1-0.5,1.6-0.7c0.2-0.1,0.4-0.2,0.6-0.3c0.3-0.1,0.6-0.3,0.9-0.4
	c0.3-0.2,0.6-0.3,0.9-0.5c0.2-0.1,0.3-0.2,0.4-0.2c5.3-3,9.9-7.1,13.5-11.9c4.3-5.8,7.1-12.7,7.9-19.8c0.8-7-0.2-14.4-3.4-20.7
	c-2.3-4.5-5.9-8.5-10.4-10.8c-2.5-1.3-5.3-2.2-8.1-2.4c-5.2-0.6-10.4,0.8-14.3,4.9c-1.7,1.8-3,4.2-3.7,7.1l0,0.1l-0.1,0.3l-0.1,0.3
	l-0.1,0.3l-0.1,0.3l0,0.3c0,0.1,0,0.3-0.1,0.4c0,0.3-0.1,0.5-0.1,0.8c0,0.3,0,0.5,0,0.8c0,0.1,0,0.2,0,0.3c0.3-6.9,6-12.4,12.9-12.4
	c7.1,0,12.9,5.8,12.9,12.9c0,1.9-0.4,3.8-1.2,5.4l-0.1,0.3c-2.6,7.1-8.8,14-16.4,16.9c-2.5,1-5.2,1.5-8,1.5c-0.5,0-1,0-1.5,0
	c-0.2,0-0.4,0-0.7,0c-0.4,0-0.7-0.1-1.1-0.1c-0.3,0-0.6-0.1-0.8-0.1c-0.3-0.1-0.7-0.1-1-0.2c-0.2,0-0.4-0.1-0.6-0.1
	c-0.5-0.1-1-0.2-1.5-0.4l-0.2-0.1c-7.1-1.9-13.8-6.5-18.5-12.3c-0.1-0.1-0.2-0.2-0.3-0.4c-0.2-0.2-0.3-0.4-0.5-0.6
	c-0.1-0.2-0.3-0.4-0.4-0.6c-0.1-0.2-0.2-0.3-0.3-0.5c-0.1-0.2-0.3-0.4-0.4-0.6c-0.1-0.2-0.3-0.4-0.4-0.6c-0.1-0.1-0.2-0.3-0.3-0.4
	c-0.2-0.3-0.4-0.6-0.5-0.9l-0.1-0.2l0,0c-0.1-0.1-0.2-0.3-0.2-0.4c-0.2-0.3-0.3-0.6-0.4-0.8c-0.1-0.2-0.2-0.4-0.3-0.7l-0.1-0.2
	c-0.1-0.3-0.3-0.6-0.4-0.9l0-0.1c0.2,24.2,28.4,47,43.5,49.4h0c0.5-0.2,1-0.4,1.4-0.6L66.4,320.8"/>
<path id="Fill-2" class="st1" d="M21.8,273.1l0.1,0.2c0.1,0.2,0.2,0.5,0.3,0.7c0.1,0.3,0.3,0.6,0.4,0.8c0.1,0.1,0.2,0.3,0.2,0.4l0,0
	l0.1,0.2c0.2,0.3,0.4,0.6,0.5,0.9c0.1,0.1,0.2,0.3,0.3,0.4c0.1,0.2,0.3,0.4,0.4,0.6c0.1,0.2,0.3,0.4,0.4,0.6
	c0.1,0.2,0.2,0.3,0.3,0.5c0.1,0.2,0.3,0.4,0.4,0.6c0.1,0.2,0.3,0.4,0.5,0.6c0.1,0.1,0.2,0.3,0.3,0.4c4.7,5.8,11.4,10.4,18.5,12.3
	l0.2,0.1c0.5,0.1,1,0.3,1.5,0.4c0.2,0,0.4,0.1,0.6,0.1c0.3,0.1,0.7,0.1,1,0.2c0.3,0,0.6,0.1,0.8,0.1c0.4,0.1,0.7,0.1,1.1,0.1
	c0.2,0,0.4,0,0.7,0c0.5,0,1,0.1,1.5,0c2.8,0,5.5-0.6,8-1.5c7.6-2.9,13.9-9.8,16.4-16.9l0.1-0.3c-2,4.5-6.5,7.5-11.8,7.5
	c-4.8,0-8.9-2.6-11.2-6.4l-0.2-0.3c-1-1.9-1.6-4-1.6-6.3c0-0.2,0-0.3,0-0.5c0-0.1,0-0.5,0-0.7c0-0.3,0-0.6,0-0.8c0-0.3,0-0.5,0-0.7
	c0.2-1.8,0.6-3.7,1.2-5.5c0.8-2.6,2.1-5.1,3.6-7.4c1.5-2.3,3.4-4.3,5.4-6.1c1-0.8,1.9-1.6,2.7-2.1h0c-4.2-2.9-9.4-4.6-14.9-4.6
	c-4.4,0-8.4,0.9-12,2.6l-0.1,0c-0.2,0.1-0.3,0.1-0.5,0.2c-0.6,0.3-1.2,0.6-1.7,0.9l0,0c-0.3,0.2-0.6,0.3-0.8,0.5l-0.1,0l0,0
	c-3.1,2-5.7,4.6-7.8,7.7v0c-0.9,1.4-1.8,2.9-2.5,4.4v0c-0.5,1.1-0.9,2.2-1.3,3.4l0,0.1l0,0.1l-0.1,0.2l0,0.1
	c-0.1,0.2-0.1,0.3-0.2,0.5l-0.1,0.3c-0.2,0.6-0.3,1.2-0.5,1.8c-0.1,0.3-0.1,0.6-0.2,0.9l0,0.2c-0.1,0.3-0.1,0.5-0.1,0.8l0,0.1l0,0.2
	c-0.3,2-0.5,4-0.5,6l0,0.2l0,0.1C21.5,272.5,21.6,272.8,21.8,273.1"/>
<path id="Fill-4" class="st2" d="M79.7,240.7c-5.5,0-10.6,1.7-14.9,4.6c-0.8,0.6-1.7,1.3-2.7,2.1c-2.1,1.8-3.9,3.8-5.4,6.1
	c-1.5,2.3-2.8,4.8-3.6,7.4c-0.6,1.7-1,3.6-1.2,5.5c0,0.3,0,0.5-0.1,0.7c0,0.3,0,0.6,0,0.8c0,0.2,0,0.6,0,0.7c0,0.2,0,0.3,0,0.5
	c0,2.3,0.6,4.4,1.6,6.3l0.2,0.3c2.2,3.8,6.4,6.4,11.2,6.4c5.2,0,9.7-3.1,11.8-7.5c0.8-1.6,1.2-3.5,1.2-5.4c0-7.1-5.8-12.9-12.9-12.9
	c-7,0-12.6,5.5-12.9,12.4c0-0.1,0-0.2,0-0.3c0-0.3,0-0.5,0-0.8c0-0.3,0.1-0.5,0.1-0.8c0-0.1,0-0.3,0.1-0.4l0-0.3l0.1-0.3l0.1-0.3
	l0.1-0.3l0.1-0.3l0-0.1c0.7-2.9,2-5.2,3.7-7.1c3.9-4.1,9.1-5.5,14.3-4.9c2.9,0.3,5.7,1.1,8.1,2.4c4.5,2.4,8.1,6.3,10.4,10.8
	c3.3,6.3,4.2,13.7,3.4,20.7c-0.8,7.1-3.7,14.1-7.9,19.8c-3.6,4.9-8.3,9-13.5,12c-0.1,0.1-0.3,0.2-0.4,0.2c-0.3,0.2-0.6,0.3-0.9,0.5
	c-0.3,0.2-0.6,0.3-0.9,0.4c-0.2,0.1-0.4,0.2-0.6,0.3c-0.5,0.2-1.1,0.5-1.6,0.7l-0.1,0.1c-0.5,0.2-1,0.4-1.4,0.6l0.2,0l0.1,0l0.1,0
	l0.1,0l0.2,0l0.1,0l0.3-0.1l0,0l0.2-0.1l0,0l0.3-0.1l0,0l0.1,0l0.1,0l0.1,0l0,0l0.3-0.1l0,0l0,0l0,0l0.2-0.1l0,0l0.1,0l0.3-0.1l0,0
	l0.3-0.1l0.1,0l0.1,0l0.1,0l0,0l0,0l0,0l0,0l0.1,0l0.1,0l0.1,0l0,0l0,0h0l0.3-0.1l0,0l0.1,0l0.2-0.1l0,0l0.1,0l0.2-0.1h0l0,0l0,0
	l0.2-0.1l0.1,0L70,320c0.1,0,0.2-0.1,0.4-0.1l0.1,0l0.1,0l0.1-0.1l0.2-0.1l0,0l0.3-0.1l0.1,0l0,0l0.3-0.1l0,0l0,0l0.2-0.1l0.1,0h0
	l0,0h0l0.1,0l0.3-0.1l0,0l0.3-0.1l0,0c0.3-0.1,0.5-0.2,0.8-0.4l0,0l0.2-0.1l0,0l0,0c0.3-0.1,0.5-0.3,0.8-0.4l0.2-0.1l0.1-0.1
	l0.1-0.1l0.2-0.1l0.1-0.1l0.2-0.1l0.3-0.1l0,0l0,0l0,0l0,0c0.5-0.3,0.9-0.5,1.4-0.8l0,0l0.1,0c0.3-0.2,0.6-0.4,0.9-0.6l0.1,0l0,0
	l0,0l0.1,0c0.2-0.1,0.3-0.2,0.5-0.3l0.1-0.1l0,0l0.1-0.1l0.1,0c0.3-0.2,0.6-0.4,1-0.6l0,0l0.1,0l0.2-0.2l0,0h0c0.5-0.3,1-0.7,1.5-1
	l0,0v0c0.3-0.2,0.5-0.4,0.8-0.5l0,0l0,0c0.2-0.2,0.5-0.3,0.7-0.5l0,0l0,0c0.7-0.5,1.4-1,2.1-1.6l0,0h0c1.4-1.1,2.9-2.4,4.2-3.6
	l0.1,0l0,0c10.1-9.3,18.5-22.1,18.5-35.3C108.3,254.6,96.9,240.7,79.7,240.7"/>
<path class="st2" d="M303.9,268.4c-3.9,0-7,3.1-7,6.9c0,3.9,3.1,7,7,7c3.9,0,7-3.1,7-7C310.9,271.4,307.8,268.4,303.9,268.4
	L303.9,268.4z M233.7,314.5c-10.1,0-13.5-12.6-13.5-25c0-13.7,4.4-24.8,13.5-24.8c8.9,0,13.4,11.1,13.4,24.8
	C247.1,301.9,243.7,314.5,233.7,314.5L233.7,314.5z M233.7,262.2c-14.6,0-27,11.2-27,27.3c0,15.5,11.9,27.5,27,27.5
	c15,0,27-12,27-27.5C260.8,273.4,248.2,262.2,233.7,262.2L233.7,262.2z M293.3,262.2c-14.1,0-26.2,10.6-26.2,27.8
	c0,16.9,10.2,27.1,23.6,27.1c11,0,17.3-7.6,19.8-12.1V304c-2.8,2.2-7.6,4.7-13.2,4.7c-9.9,0-17.9-7.9-17.9-22.1
	c0-12.4,7.1-21.2,17.8-21.2c2.1,0,4,0.2,6.2,0.7C301.8,264,298.5,262.2,293.3,262.2L293.3,262.2z M437.4,314.5
	c-10.1,0-13.5-12.6-13.5-25c0-13.7,4.4-24.8,13.5-24.8c8.9,0,13.4,11.1,13.4,24.8C450.7,301.9,447.3,314.5,437.4,314.5L437.4,314.5z
	 M437.4,262.2c-14.6,0-27,11.2-27,27.3c0,15.5,11.9,27.5,27,27.5c15,0,27-12,27-27.5C464.4,273.4,451.9,262.2,437.4,262.2
	L437.4,262.2z M148.3,312.7v-64.6h12.3c14.3,0,25.5,12.9,25.5,31.4c0,19.3-9.6,33.2-26.7,33.2H148.3z M161.1,244.9H127v0.4
	c6.9,2.4,8.2,4.9,8.2,13.6v42.8c0,8.6-1.3,11.4-8.2,13.8v0.4h33.1c23.6,0,40.2-13.6,40.2-37.2C200.3,256.1,182.4,244.9,161.1,244.9
	L161.1,244.9z M407.4,244.9h-20.4l-23.4,55.3l-22.4-55.3h-22.5v0.4c7.9,3.5,8.5,7.2,7.7,19.2l-2.1,28.2c-1.1,16-2.1,19.9-10,22.7
	v0.4h22.3v-0.4c-8.8-2.8-8.6-7.9-7.6-22.8l2.4-37.8l24.6,61.1h5.4l25.4-59.7l2.6,40.7c0.8,12.3,0.9,15.8-7.3,18.6v0.4h29v-0.4
	c-7.1-2.7-7.8-4.9-8.8-19.4l-2.4-35.4c-0.7-8.8,0.1-12,7.5-15.3V244.9L407.4,244.9z M486.4,262.2H486c-5.4,1.9-12.7,4.1-19.8,4.6
	v0.4c6.8,2.4,7.8,4.3,7.8,13.4v21.9c0,8.2-1,10.7-6.7,13v0.4h27.3v-0.4c-7-2.3-8.2-4.7-8.2-13V262.2z M498,262.2
	c-4.1,0-7.1,3.2-7.1,7.2c0,4.1,3,7.2,7.1,7.2c4,0,7.2-3.1,7.2-7.2C505.2,265.4,502,262.2,498,262.2L498,262.2z M603.6,262.2
	c-9.9,0-18.6,6.3-18.6,15.6c0,18.2,27,15.5,27,28c0,5-4.4,8.5-9.7,8.5c-6.1,0-12-5.6-17.3-15.8h-0.4l0.3,15.1
	c4.5,2.2,10.5,3.5,16.3,3.5c11.2,0,20-6.6,20-16.3c0-18.5-27.8-16.3-27.8-28.2c0-4.5,4-7.7,8.6-7.7c5.1,0,10,4.4,14.9,13.4h0.5V265
	C613.4,263.3,608.1,262.2,603.6,262.2 M529.3,262.2h-0.4c-5.4,1.9-12.7,4.1-19.8,4.6v0.4c6.8,2.4,7.8,4.3,7.8,13.4v21.9
	c0,8.2-1,10.7-6.7,13v0.4h27.3v-0.4c-7-2.3-8.2-4.7-8.2-13V262.2z M540.9,262.2c-4.1,0-7.1,3.2-7.1,7.2c0,4.1,3,7.2,7.1,7.2
	c4,0,7.2-3.1,7.2-7.2C548.1,265.4,544.9,262.2,540.9,262.2L540.9,262.2z M572.3,262.2h-0.4c-5.3,1.7-12.7,3.7-19.8,4.3v0.4
	c6.5,2.3,7.8,4,7.8,13.1v22.7c0,8-1,10.5-6.7,12.7v0.4H579v-0.4c-5.6-2.3-6.7-4.7-6.7-12.7V262.2z M565.5,241.5
	c-4.1,0-7.2,3.2-7.2,7.2c0,4.1,3.1,7.2,7.2,7.2c4,0,7.2-3.1,7.2-7.2C572.7,244.7,569.5,241.5,565.5,241.5L565.5,241.5z"/>
<path id="Fill-12" class="st1" d="M153.8,332.9H146l-11.5,31.3c-5.9,16.3-7.7,18.3-12.3,19.7v0.3h16.9v-0.3
	c-7.8-1.6-5.6-7.2-1.8-18.3h18.7l0.1,0.3c3.7,10.6,6.5,16.4-0.8,18v0.3h20.9v-0.3c-4-1.3-5.5-3.3-10.9-18.4L153.8,332.9z
	 M146.7,338.9l8.5,24.1h-16.8L146.7,338.9z M197.9,400.3V400c-5.1-1.8-5.8-3.4-5.8-10.1v-5.3c1.6,0.2,4.2,0.4,6.1,0.4
	c8.6,0,21.7-6.1,21.7-21.3c0-11-6.4-18.2-15.5-18.2c-5.7,0-10.6,3.7-12.3,5.5v-5.5h-0.3c-3.8,1.3-8.7,2.6-14.5,3.1v0.3
	c4.9,1.7,5.6,2.8,5.6,10.5v31.3c0,5.8-0.7,7.6-4.8,9.2v0.3H197.9z M198.6,383.2c-2.6,0-5-1-6.4-1.8v-29.3c1.4-0.9,4-2.1,7-2.1
	c6.4,0,11.5,5.5,11.5,15.4C210.5,376.7,205.1,383.2,198.6,383.2L198.6,383.2z M245.4,385.1c10.8,0,19.4-8.6,19.4-19.8
	c0-11.6-9-19.7-19.4-19.7c-10.5,0-19.4,8.1-19.4,19.7C226,376.4,234.6,385.1,245.4,385.1L245.4,385.1z M245.4,383.3
	c-7.2,0-9.7-9.1-9.7-18c0-9.8,3.2-17.8,9.7-17.8c6.4,0,9.6,8,9.6,17.8C255,374.2,252.6,383.3,245.4,383.3L245.4,383.3z M283.1,384.8
	c5.3,0,8.7-3.2,10.6-5.2l-0.2-0.4c-1.6,0.6-3.6,1-5.1,1c-3.8,0-6.1-2.1-6.1-6.5v-24h9.5v-3.3h-9.5V337h-0.4
	c-3.7,5.5-7.2,8.8-13.9,12.2v0.5h5.3v23.7C273.3,381.9,276.9,384.8,283.1,384.8L283.1,384.8z M332.3,358.2c0-9.4-5-12.6-10.7-12.6
	c-5.3,0-10.7,3.7-12.9,5.9v-22h-0.3c-3.9,1.3-9.5,3-14.6,3.3v0.3c5,1.7,5.7,3.1,5.7,9.6v31.9c0,5.8-0.8,7.7-4.9,9.3v0.3h18.9v-0.3
	c-4.1-1.6-4.9-3.3-4.9-9.3v-22.3c1.9-1,4.9-2,7.5-2c4.1,0,7.2,2.4,7.2,7.8v16.5c0,5.8-0.8,7.7-4.9,9.3v0.3h18.6v-0.3
	c-4.3-1.6-4.9-3.5-4.9-10.3V358.2z M373.2,374.9c-2.2,1.9-6.4,4.1-11.2,4.1c-7.2,0-12-5.4-12.1-15.5V363h22.9v-2.9
	c0-10.4-6.2-14.5-14-14.5c-9.6,0-17.9,8.4-17.9,20.7c0,11.2,6.8,18.8,16.9,18.8c8.8,0,13.6-6.3,15.6-9.8L373.2,374.9z M358.2,347.5
	c4.4,0,6.5,3.3,6.5,12.9l-14.7,1.1C350.3,353.3,352.8,347.5,358.2,347.5L358.2,347.5z M390.4,329.5h-0.3c-3.9,1.5-9.6,2.9-14.6,3.3
	v0.3c4.8,1.5,5.7,2.8,5.7,9.3v32.3c0,5.8-0.8,7.5-4.9,9.2v0.3h18.9v-0.3c-4.1-1.6-4.9-3.4-4.9-9.2V329.5z M399.6,360.8l5.6-5.5
	c5.3-5.1,9.5-7.5,13.5-8.5v-0.4h-20.5v0.5c6.6,1.8,6.7,5,1.1,10.6l-7.1,7.1l8,11.6c5.3,7.7,5.4,7.9,12.4,7.9h7.8v-0.3
	c-2.7-0.8-5-2-9.5-8.1L399.6,360.8z M450.8,374.9c-2.2,1.9-6.4,4.1-11.2,4.1c-7.2,0-12-5.4-12.1-15.5V363h22.9v-2.9
	c0-10.4-6.2-14.5-14-14.5c-9.6,0-17.9,8.4-17.9,20.7c0,11.2,6.8,18.8,16.9,18.8c8.8,0,13.6-6.3,15.6-9.8L450.8,374.9z M435.8,347.5
	c4.4,0,6.5,3.3,6.5,12.9l-14.7,1.1C427.9,353.3,430.4,347.5,435.8,347.5L435.8,347.5z"/>
</svg>
