<?xml version="1.0" encoding="UTF-8" standalone="no"?>
<!-- Created with Inkscape (http://www.inkscape.org/) -->

<svg
   version="1.1"
   id="svg2"
   xml:space="preserve"
   width="166.008"
   height="161.564"
   viewBox="0 0 166.008 161.564"
   sodipodi:docname="Logo_Hexal_CMYK_A4-100_ProtectedZone_bottom.ai"
   xmlns:inkscape="http://www.inkscape.org/namespaces/inkscape"
   xmlns:sodipodi="http://sodipodi.sourceforge.net/DTD/sodipodi-0.dtd"
   xmlns="http://www.w3.org/2000/svg"
   xmlns:svg="http://www.w3.org/2000/svg"><defs
     id="defs6"><clipPath
       clipPathUnits="userSpaceOnUse"
       id="clipPath16"><path
         d="M 0,121.173 H 124.506 V 0 H 0 Z"
         id="path14" /></clipPath><clipPath
       clipPathUnits="userSpaceOnUse"
       id="clipPath116"><path
         d="m 87.9091,74.3274 h 9.1576 V 64.638 h -9.1576 z"
         id="path114" /></clipPath><clipPath
       clipPathUnits="userSpaceOnUse"
       id="clipPath128"><path
         d="m 83.3303,74.3274 h 9.1576 V 64.638 h -9.1576 z"
         id="path126" /></clipPath><clipPath
       clipPathUnits="userSpaceOnUse"
       id="clipPath140"><path
         d="m 97.0667,74.3274 h 9.1573 V 64.638 h -9.1573 z"
         id="path138" /></clipPath><clipPath
       clipPathUnits="userSpaceOnUse"
       id="clipPath152"><path
         d="m 106.096,74.3274 h 9.158 V 64.638 h -9.158 z"
         id="path150" /></clipPath><clipPath
       clipPathUnits="userSpaceOnUse"
       id="clipPath164"><path
         d="m 115.254,74.3274 h 9.157 V 64.638 h -9.157 z"
         id="path162" /></clipPath><clipPath
       clipPathUnits="userSpaceOnUse"
       id="clipPath176"><path
         d="m 50.8486,29.0812 h 9.1577 v -9.6894 h -9.1577 z"
         id="path174" /></clipPath><clipPath
       clipPathUnits="userSpaceOnUse"
       id="clipPath188"><path
         d="m 50.8486,19.3918 h 9.1577 V 9.70239 h -9.1577 z"
         id="path186" /></clipPath><clipPath
       clipPathUnits="userSpaceOnUse"
       id="clipPath200"><path
         d="m 50.8486,9.70239 h 9.1577 V 0.0130005 h -9.1577 z"
         id="path198" /></clipPath><clipPath
       clipPathUnits="userSpaceOnUse"
       id="clipPath212"><path
         d="m 17.8255,73.8431 h 9.1576 v -9.6894 h -9.1576 z"
         id="path210" /></clipPath><clipPath
       clipPathUnits="userSpaceOnUse"
       id="clipPath224"><path
         d="M 8.78366,73.8493 H 17.9413 V 64.1599 H 8.78366 Z"
         id="path222" /></clipPath><clipPath
       clipPathUnits="userSpaceOnUse"
       id="clipPath236"><path
         d="M -0.373978,73.8493 H 8.78366 v -9.6894 h -9.157638 z"
         id="path234" /></clipPath><clipPath
       clipPathUnits="userSpaceOnUse"
       id="clipPath248"><path
         d="m 50.8486,111.474 h 9.1577 v -9.689 h -9.1577 z"
         id="path246" /></clipPath><clipPath
       clipPathUnits="userSpaceOnUse"
       id="clipPath260"><path
         d="m 50.8564,121.152 h 9.1576 v -9.689 h -9.1576 z"
         id="path258" /></clipPath></defs><sodipodi:namedview
     id="namedview4"
     pagecolor="#ffffff"
     bordercolor="#666666"
     borderopacity="1.0"
     inkscape:pageshadow="2"
     inkscape:pageopacity="0.0"
     inkscape:pagecheckerboard="0" /><g
     id="g8"
     inkscape:groupmode="layer"
     inkscape:label="Logo_Hexal_CMYK_A4-100_ProtectedZone_bottom"
     transform="matrix(1.3333333,0,0,-1.3333333,0,161.564)"><g
       id="g10"><g
         id="g12"
         clip-path="url(#clipPath16)"><g
           id="g18"
           transform="translate(86.5134,83.9597)"><path
             d="M 0,0 C -0.023,0.025 -0.035,0.037 -0.035,0.037 L -16.627,16.63 c -1.196,1.195 -3.21,1.195 -3.21,1.195 h -11.578 -11.578 c 0,0 -2.013,0 -3.209,-1.195 L -62.794,0.037 c 0,0 -0.012,-0.012 -0.035,-0.037 -0.221,-0.238 -1.396,-1.598 -1.396,-3.567 v -11.418 -11.417 c 0,-1.97 1.175,-3.33 1.396,-3.568 l 0.035,-0.038 16.592,-16.592 c 1.196,-1.195 3.209,-1.195 3.209,-1.195 h 11.578 11.578 c 0,0 2.014,0 3.21,1.195 L -0.035,-30.008 0,-29.97 c 0.221,0.238 1.396,1.598 1.396,3.568 v 11.417 11.418 C 1.396,-1.598 0.221,-0.238 0,0"
             style="fill:#ffffff;fill-opacity:1;fill-rule:nonzero;stroke:none"
             id="path20" /></g><g
           id="g22"
           transform="translate(40.0701,73.819)"><path
             d="m 0,0 v -9.642 h -2.284 v 3.937 H -5.339 V -9.642 H -7.624 V 0 h 2.285 v -3.699 h 3.055 V 0 Z"
             style="fill:#1a68b7;fill-opacity:1;fill-rule:nonzero;stroke:none"
             id="path24" /></g><g
           id="g26"
           transform="translate(77.8425,66.1716)"><path
             d="m 0,0 v -1.994 h -5.681 v 9.641 h 2.285 V 0 Z"
             style="fill:#1a68b7;fill-opacity:1;fill-rule:nonzero;stroke:none"
             id="path28" /></g><g
           id="g30"
           transform="translate(45.4031,71.906)"><path
             d="m 0,0 v -1.874 h 3.385 v -1.83 H 0 V -5.815 H 3.563 V -7.729 H -2.284 V 1.913 H 3.563 V 0 Z"
             style="fill:#1a68b7;fill-opacity:1;fill-rule:nonzero;stroke:none"
             id="path32" /></g><g
           id="g34"
           transform="translate(60.0066,64.1296)"><path
             d="M 0,0 H -2.669 L -4.578,3.239 -6.489,0 h -2.669 l 3.112,4.845 -2.855,4.844 h 2.542 l 1.781,-3.163 1.779,3.163 h 2.542 L -3.112,4.845 Z"
             style="fill:#1a68b7;fill-opacity:1;fill-rule:nonzero;stroke:none"
             id="path36" /></g><g
           id="g38"
           transform="translate(64.3562,67.7468)"><path
             d="M 0,0 1.148,3.472 2.296,0 Z M 5.102,-1.829 4.496,0 2.488,6.072 h -2.68 L -2.2,0 -2.805,-1.829 -3.396,-3.617 h 2.201 l 0.591,1.788 h 3.505 l 0.591,-1.788 h 2.199 z"
             style="fill:#1a68b7;fill-opacity:1;fill-rule:nonzero;stroke:none"
             id="path40" /></g><g
           id="g42"
           transform="translate(44.3894,91.4772)"><path
             d="m 0,0 v -11.758 h -11.785 v -2.284 H 0 c 1.262,0 2.285,1.022 2.285,2.284 V 0 0.028 H 0 Z"
             style="fill:#1a68b7;fill-opacity:1;fill-rule:nonzero;stroke:none"
             id="path44" /></g><g
           id="g46"
           transform="translate(65.8083,91.4772)"><path
             d="M 0,0 V 0.028 H -2.285 V 0 -11.758 c 0,-1.262 1.022,-2.284 2.285,-2.284 h 11.785 v 2.284 H 0 Z"
             style="fill:#1a68b7;fill-opacity:1;fill-rule:nonzero;stroke:none"
             id="path48" /></g><g
           id="g50"
           transform="translate(81.0456,58.9167)"><path
             d="m 0,0 c 0,-0.604 -0.272,-0.951 -0.341,-1.029 -0.01,-0.012 -0.015,-0.017 -0.015,-0.017 l -14.315,-14.315 c -0.008,-0.006 -0.016,-0.014 -0.024,-0.023 -0.496,-0.497 -1.169,-0.505 -1.169,-0.505 h -10.083 -10.082 c 0,0 -0.673,0.008 -1.169,0.505 -0.009,0.009 -0.017,0.017 -0.025,0.023 l -14.314,14.315 c 0,0 -0.006,0.005 -0.016,0.017 -0.068,0.078 -0.341,0.425 -0.341,1.029 v 10.058 10.058 c 0,0.604 0.273,0.951 0.341,1.03 0.01,0.011 0.016,0.016 0.016,0.016 l 14.314,14.315 c 0.008,0.006 0.016,0.014 0.025,0.023 0.496,0.497 1.169,0.505 1.169,0.505 h 10.082 10.083 c 0,0 0.673,-0.008 1.169,-0.505 0.008,-0.009 0.016,-0.017 0.024,-0.023 L -0.356,21.162 c 0,0 0.005,-0.005 0.015,-0.016 C -0.272,21.067 0,20.72 0,20.116 V 10.058 Z m 1.084,22.952 c -0.021,0.022 -0.03,0.032 -0.03,0.032 l -14.278,14.277 c -1.028,1.028 -2.76,1.028 -2.76,1.028 h -9.963 -9.962 c 0,0 -1.733,0 -2.761,-1.028 L -52.947,22.984 c 0,0 -0.01,-0.01 -0.031,-0.032 -0.189,-0.205 -1.201,-1.375 -1.201,-3.07 V 10.058 0.234 c 0,-1.695 1.012,-2.865 1.201,-3.07 0.021,-0.021 0.031,-0.032 0.031,-0.032 l 14.277,-14.277 c 1.028,-1.029 2.761,-1.029 2.761,-1.029 h 9.962 9.963 c 0,0 1.732,0 2.76,1.029 L 1.054,-2.868 c 0,0 0.009,0.011 0.03,0.032 0.189,0.205 1.2,1.375 1.2,3.07 v 9.824 9.824 c 0,1.695 -1.011,2.865 -1.2,3.07"
             style="fill:#1a68b7;fill-opacity:1;fill-rule:nonzero;stroke:none"
             id="path52" /></g><g
           id="g54"
           transform="translate(44.3894,60.5143)"><path
             d="M 0,0 H -11.785 V -2.285 H 0 v -11.757 -0.028 h 2.285 v 0.028 11.757 C 2.285,-1.022 1.262,0 0,0"
             style="fill:#1a68b7;fill-opacity:1;fill-rule:nonzero;stroke:none"
             id="path56" /></g><g
           id="g58"
           transform="translate(63.5232,58.2292)"><path
             d="m 0,0 v -11.757 -0.028 H 2.285 V -11.757 0 H 14.07 V 2.285 H 2.285 C 1.022,2.285 0,1.263 0,0"
             style="fill:#1a68b7;fill-opacity:1;fill-rule:nonzero;stroke:none"
             id="path60" /></g><g
           id="g62"
           transform="translate(28.6609,31.4694)"><path
             d="M 0,0 H 1.972 L 1.364,1.61 C 1.18,2.1 1.042,2.501 0.952,2.815 0.878,2.443 0.773,2.073 0.639,1.705 Z m -1.678,-2.389 2.234,5.816 h 0.829 l 2.38,-5.816 H 2.888 L 2.21,-0.627 H -0.222 L -0.86,-2.389 Z"
             style="fill:#1a68b7;fill-opacity:1;fill-rule:nonzero;stroke:none"
             id="path64" /></g><g
           id="g66"
           transform="translate(34.8308,30.9499)"><path
             d="m 0,0 0.726,0.063 c 0.034,-0.291 0.114,-0.53 0.24,-0.716 0.126,-0.187 0.32,-0.337 0.585,-0.452 0.264,-0.115 0.562,-0.172 0.892,-0.172 0.294,0 0.553,0.043 0.778,0.131 0.224,0.086 0.392,0.207 0.502,0.358 0.109,0.152 0.165,0.318 0.165,0.498 0,0.183 -0.054,0.342 -0.159,0.477 C 3.623,0.324 3.448,0.438 3.205,0.531 3.049,0.592 2.704,0.687 2.17,0.814 1.636,0.943 1.262,1.063 1.047,1.178 0.77,1.323 0.562,1.504 0.427,1.719 0.29,1.935 0.223,2.176 0.223,2.443 c 0,0.293 0.083,0.568 0.249,0.823 0.167,0.255 0.41,0.449 0.73,0.582 0.319,0.131 0.676,0.198 1.067,0.198 0.431,0 0.811,-0.07 1.14,-0.209 C 3.738,3.698 3.992,3.494 4.169,3.225 4.346,2.955 4.441,2.649 4.454,2.308 L 3.717,2.253 C 3.677,2.62 3.543,2.897 3.314,3.086 3.085,3.273 2.748,3.367 2.301,3.367 1.835,3.367 1.496,3.282 1.283,3.111 1.07,2.94 0.964,2.735 0.964,2.494 0.964,2.285 1.039,2.114 1.19,1.979 1.338,1.844 1.725,1.706 2.351,1.564 2.976,1.423 3.404,1.299 3.638,1.193 3.976,1.037 4.226,0.84 4.387,0.601 4.548,0.361 4.629,0.085 4.629,-0.227 4.629,-0.536 4.54,-0.827 4.363,-1.102 4.187,-1.375 3.932,-1.588 3.6,-1.74 3.268,-1.892 2.895,-1.968 2.479,-1.968 c -0.526,0 -0.967,0.076 -1.323,0.23 C 0.801,-1.584 0.521,-1.354 0.319,-1.046 0.117,-0.737 0.011,-0.39 0,0"
             style="fill:#1a68b7;fill-opacity:1;fill-rule:nonzero;stroke:none"
             id="path68" /></g><g
           id="g70"
           transform="translate(42.865,31.195)"><path
             d="m 0,0 c -0.259,-0.105 -0.647,-0.195 -1.166,-0.27 -0.293,-0.042 -0.501,-0.089 -0.622,-0.142 -0.122,-0.053 -0.216,-0.13 -0.282,-0.233 -0.067,-0.101 -0.099,-0.214 -0.099,-0.338 0,-0.191 0.071,-0.349 0.216,-0.476 0.144,-0.127 0.355,-0.19 0.633,-0.19 0.275,0 0.519,0.059 0.733,0.179 0.215,0.121 0.372,0.285 0.473,0.494 0.076,0.162 0.114,0.4 0.114,0.714 z m 0.06,-1.594 c -0.264,-0.225 -0.519,-0.384 -0.764,-0.476 -0.244,-0.093 -0.507,-0.139 -0.787,-0.139 -0.463,0 -0.819,0.113 -1.067,0.339 -0.249,0.226 -0.373,0.516 -0.373,0.867 0,0.206 0.047,0.395 0.141,0.565 0.094,0.17 0.217,0.307 0.369,0.411 0.151,0.102 0.323,0.18 0.514,0.234 0.139,0.036 0.351,0.072 0.635,0.106 0.576,0.07 1.001,0.152 1.272,0.247 0.003,0.097 0.005,0.16 0.005,0.186 0,0.291 -0.067,0.496 -0.203,0.615 -0.182,0.161 -0.453,0.242 -0.813,0.242 -0.336,0 -0.584,-0.059 -0.744,-0.176 -0.16,-0.118 -0.278,-0.326 -0.354,-0.625 l -0.699,0.094 c 0.064,0.299 0.168,0.541 0.314,0.725 0.145,0.184 0.355,0.325 0.63,0.424 0.275,0.1 0.593,0.149 0.956,0.149 0.36,0 0.652,-0.043 0.877,-0.127 C 0.193,1.982 0.358,1.876 0.465,1.748 0.57,1.619 0.645,1.457 0.687,1.262 0.711,1.14 0.723,0.921 0.723,0.604 v -0.953 c 0,-0.664 0.014,-1.084 0.045,-1.259 0.031,-0.176 0.09,-0.344 0.18,-0.506 H 0.203 c -0.074,0.148 -0.122,0.321 -0.143,0.52"
             style="fill:#1a68b7;fill-opacity:1;fill-rule:nonzero;stroke:none"
             id="path72" /></g><g
           id="g74"
           transform="translate(44.4499,29.0807)"><path
             d="M 0,0 V 4.213 H 0.643 V 3.614 c 0.309,0.463 0.756,0.695 1.34,0.695 0.254,0 0.488,-0.046 0.701,-0.138 C 2.896,4.08 3.056,3.96 3.162,3.813 3.268,3.664 3.342,3.488 3.384,3.285 3.41,3.152 3.424,2.921 3.424,2.591 V 0 H 2.71 V 2.563 C 2.71,2.854 2.682,3.071 2.626,3.216 2.57,3.359 2.473,3.475 2.331,3.561 2.189,3.646 2.023,3.689 1.833,3.689 1.528,3.689 1.267,3.593 1.046,3.399 0.825,3.207 0.715,2.841 0.715,2.301 V 0 Z"
             style="fill:#1a68b7;fill-opacity:1;fill-rule:nonzero;stroke:none"
             id="path76" /></g><g
           id="g78"
           transform="translate(49.2576,31.1833)"><path
             d="m 0,0 c 0,-0.539 0.113,-0.942 0.341,-1.21 0.227,-0.267 0.496,-0.4 0.805,-0.4 0.312,0 0.578,0.128 0.795,0.382 0.218,0.255 0.328,0.645 0.328,1.168 0,0.577 -0.112,1 -0.333,1.27 C 1.714,1.479 1.439,1.614 1.114,1.614 0.797,1.614 0.532,1.485 0.319,1.226 0.106,0.967 0,0.559 0,0 m 2.257,-2.103 v 0.533 c -0.268,-0.418 -0.66,-0.627 -1.178,-0.627 -0.336,0 -0.644,0.093 -0.927,0.277 -0.281,0.186 -0.5,0.443 -0.654,0.775 -0.154,0.333 -0.232,0.714 -0.232,1.145 0,0.421 0.07,0.802 0.211,1.145 0.139,0.342 0.349,0.604 0.629,0.787 0.281,0.182 0.594,0.274 0.941,0.274 0.254,0 0.48,-0.054 0.679,-0.161 C 1.924,1.937 2.085,1.799 2.209,1.627 v 2.086 h 0.71 v -5.816 z"
             style="fill:#1a68b7;fill-opacity:1;fill-rule:nonzero;stroke:none"
             id="path80" /></g><g
           id="g82"
           transform="translate(53.4587,31.1872)"><path
             d="m 0,0 c 0,-0.539 0.118,-0.943 0.354,-1.212 0.235,-0.268 0.531,-0.402 0.887,-0.402 0.355,0 0.65,0.135 0.885,0.404 0.235,0.271 0.353,0.682 0.353,1.234 0,0.521 -0.118,0.915 -0.355,1.184 C 1.888,1.477 1.594,1.61 1.241,1.61 0.885,1.61 0.589,1.478 0.354,1.21 0.118,0.942 0,0.54 0,0 m -0.733,0 c 0,0.78 0.216,1.358 0.65,1.733 0.362,0.313 0.804,0.469 1.324,0.469 0.579,0 1.053,-0.19 1.421,-0.569 0.367,-0.38 0.551,-0.904 0.551,-1.573 0,-0.542 -0.081,-0.969 -0.244,-1.28 -0.162,-0.31 -0.4,-0.551 -0.71,-0.723 -0.311,-0.172 -0.65,-0.258 -1.018,-0.258 -0.589,0 -1.066,0.189 -1.429,0.567 -0.364,0.378 -0.545,0.923 -0.545,1.634"
             style="fill:#1a68b7;fill-opacity:1;fill-rule:nonzero;stroke:none"
             id="path84" /></g><g
           id="g86"
           transform="translate(56.823,29.0807)"><path
             d="M 0,0 V 0.579 L 2.682,3.657 C 2.378,3.642 2.109,3.634 1.876,3.634 H 0.159 V 4.213 H 3.602 V 3.741 L 1.321,1.067 0.881,0.579 c 0.32,0.025 0.62,0.036 0.9,0.036 H 3.729 V 0 Z"
             style="fill:#1a68b7;fill-opacity:1;fill-rule:nonzero;stroke:none"
             id="path88" /></g><g
           id="g90"
           transform="translate(64.0876,29.7673)"><path
             d="M 0,0 H 1.448 C 1.696,0 1.871,0.01 1.972,0.028 2.148,0.06 2.297,0.112 2.416,0.187 2.535,0.261 2.633,0.368 2.71,0.51 2.786,0.651 2.824,0.814 2.824,1 2.824,1.217 2.769,1.405 2.658,1.565 2.547,1.725 2.393,1.837 2.196,1.902 1.999,1.967 1.715,1.999 1.345,1.999 H 0 Z m 0,2.686 h 1.258 c 0.341,0 0.586,0.022 0.733,0.067 0.197,0.059 0.344,0.154 0.443,0.29 0.099,0.135 0.149,0.304 0.149,0.507 0,0.193 -0.047,0.363 -0.14,0.51 C 2.352,4.207 2.219,4.308 2.047,4.361 1.875,4.416 1.58,4.442 1.162,4.442 H 0 Z M -0.77,-0.687 V 5.129 H 1.412 C 1.856,5.129 2.213,5.07 2.481,4.952 2.75,4.835 2.96,4.653 3.112,4.409 3.264,4.164 3.34,3.908 3.34,3.642 3.34,3.393 3.272,3.159 3.138,2.939 3.003,2.72 2.8,2.543 2.527,2.408 2.879,2.305 3.149,2.129 3.338,1.88 3.527,1.632 3.622,1.338 3.622,1 3.622,0.728 3.564,0.474 3.449,0.24 3.334,0.006 3.192,-0.175 3.022,-0.302 2.854,-0.429 2.642,-0.524 2.386,-0.589 2.131,-0.653 1.818,-0.687 1.448,-0.687 Z"
             style="fill:#1a68b7;fill-opacity:1;fill-rule:nonzero;stroke:none"
             id="path92" /></g><g
           id="g94"
           transform="translate(68.3689,29.0807)"><path
             d="M 0,0 V 4.213 H 0.643 V 3.574 c 0.164,0.299 0.315,0.496 0.454,0.591 0.138,0.096 0.292,0.144 0.458,0.144 0.24,0 0.485,-0.078 0.734,-0.231 L 2.043,3.416 C 1.868,3.519 1.693,3.57 1.52,3.57 1.363,3.57 1.223,3.523 1.099,3.43 0.975,3.336 0.886,3.205 0.833,3.039 0.754,2.785 0.714,2.507 0.714,2.206 V 0 Z"
             style="fill:#1a68b7;fill-opacity:1;fill-rule:nonzero;stroke:none"
             id="path96" /></g><g
           id="g98"
           transform="translate(73.6003,31.195)"><path
             d="m 0,0 c -0.259,-0.105 -0.647,-0.195 -1.166,-0.27 -0.293,-0.042 -0.501,-0.089 -0.623,-0.142 -0.121,-0.053 -0.215,-0.13 -0.281,-0.233 -0.067,-0.101 -0.099,-0.214 -0.099,-0.338 0,-0.191 0.071,-0.349 0.216,-0.476 0.143,-0.127 0.354,-0.19 0.633,-0.19 0.274,0 0.519,0.059 0.733,0.179 0.215,0.121 0.372,0.285 0.473,0.494 0.076,0.162 0.114,0.4 0.114,0.714 z m 0.06,-1.594 c -0.264,-0.225 -0.519,-0.384 -0.764,-0.476 -0.244,-0.093 -0.507,-0.139 -0.787,-0.139 -0.463,0 -0.819,0.113 -1.067,0.339 -0.249,0.226 -0.373,0.516 -0.373,0.867 0,0.206 0.047,0.395 0.141,0.565 0.094,0.17 0.217,0.307 0.369,0.411 0.151,0.102 0.323,0.18 0.514,0.234 0.139,0.036 0.351,0.072 0.635,0.106 0.576,0.07 1,0.152 1.272,0.247 0.003,0.097 0.004,0.16 0.004,0.186 0,0.291 -0.067,0.496 -0.202,0.615 -0.183,0.161 -0.453,0.242 -0.813,0.242 -0.336,0 -0.584,-0.059 -0.744,-0.176 -0.16,-0.118 -0.278,-0.326 -0.354,-0.625 l -0.699,0.094 c 0.064,0.299 0.168,0.541 0.314,0.725 0.144,0.184 0.355,0.325 0.63,0.424 0.275,0.1 0.593,0.149 0.956,0.149 0.36,0 0.652,-0.043 0.877,-0.127 C 0.193,1.982 0.358,1.876 0.465,1.748 0.57,1.619 0.645,1.457 0.687,1.262 0.71,1.14 0.723,0.921 0.723,0.604 v -0.953 c 0,-0.664 0.014,-1.084 0.045,-1.259 0.03,-0.176 0.09,-0.344 0.18,-0.506 H 0.203 c -0.074,0.148 -0.122,0.321 -0.143,0.52"
             style="fill:#1a68b7;fill-opacity:1;fill-rule:nonzero;stroke:none"
             id="path100" /></g><g
           id="g102"
           transform="translate(75.1853,29.0807)"><path
             d="M 0,0 V 4.213 H 0.643 V 3.614 c 0.309,0.463 0.756,0.695 1.34,0.695 0.254,0 0.488,-0.046 0.701,-0.138 C 2.896,4.08 3.056,3.96 3.161,3.813 3.268,3.664 3.342,3.488 3.384,3.285 3.41,3.152 3.424,2.921 3.424,2.591 V 0 H 2.71 V 2.563 C 2.71,2.854 2.682,3.071 2.626,3.216 2.57,3.359 2.472,3.475 2.331,3.561 2.189,3.646 2.023,3.689 1.833,3.689 1.528,3.689 1.267,3.593 1.045,3.399 0.824,3.207 0.714,2.841 0.714,2.301 V 0 Z"
             style="fill:#1a68b7;fill-opacity:1;fill-rule:nonzero;stroke:none"
             id="path104" /></g><g
           id="g106"
           transform="translate(79.9275,31.1833)"><path
             d="m 0,0 c 0,-0.539 0.114,-0.942 0.342,-1.21 0.226,-0.267 0.495,-0.4 0.804,-0.4 0.313,0 0.578,0.128 0.796,0.382 0.218,0.255 0.328,0.645 0.328,1.168 0,0.577 -0.112,1 -0.334,1.27 C 1.714,1.479 1.44,1.614 1.115,1.614 0.798,1.614 0.532,1.485 0.319,1.226 0.106,0.967 0,0.559 0,0 M 2.257,-2.103 V -1.57 C 1.99,-1.988 1.598,-2.197 1.079,-2.197 c -0.336,0 -0.644,0.093 -0.926,0.277 -0.282,0.186 -0.5,0.443 -0.655,0.775 -0.154,0.333 -0.231,0.714 -0.231,1.145 0,0.421 0.07,0.802 0.21,1.145 0.14,0.342 0.35,0.604 0.63,0.787 0.281,0.182 0.594,0.274 0.94,0.274 0.254,0 0.48,-0.054 0.679,-0.161 C 1.924,1.937 2.085,1.799 2.21,1.627 v 2.086 h 0.71 v -5.816 z"
             style="fill:#1a68b7;fill-opacity:1;fill-rule:nonzero;stroke:none"
             id="path108" /></g><g
           id="g110"><g
             id="g112" /><g
             id="g120"><g
               clip-path="url(#clipPath116)"
               opacity="0.5"
               id="g118" /></g></g><g
           id="g122"><g
             id="g124" /><g
             id="g132"><g
               clip-path="url(#clipPath128)"
               opacity="0.5"
               id="g130" /></g></g><g
           id="g134"><g
             id="g136" /><g
             id="g144"><g
               clip-path="url(#clipPath140)"
               opacity="0.5"
               id="g142" /></g></g><g
           id="g146"><g
             id="g148" /><g
             id="g156"><g
               clip-path="url(#clipPath152)"
               opacity="0.5"
               id="g154" /></g></g><g
           id="g158"><g
             id="g160" /><g
             id="g168"><g
               clip-path="url(#clipPath164)"
               opacity="0.5"
               id="g166" /></g></g><g
           id="g170"><g
             id="g172" /><g
             id="g180"><g
               clip-path="url(#clipPath176)"
               opacity="0.5"
               id="g178" /></g></g><g
           id="g182"><g
             id="g184" /><g
             id="g192"><g
               clip-path="url(#clipPath188)"
               opacity="0.5"
               id="g190" /></g></g><g
           id="g194"><g
             id="g196" /><g
             id="g204"><g
               clip-path="url(#clipPath200)"
               opacity="0.5"
               id="g202" /></g></g><g
           id="g206"><g
             id="g208" /><g
             id="g216"><g
               clip-path="url(#clipPath212)"
               opacity="0.5"
               id="g214" /></g></g><g
           id="g218"><g
             id="g220" /><g
             id="g228"><g
               clip-path="url(#clipPath224)"
               opacity="0.5"
               id="g226" /></g></g><g
           id="g230"><g
             id="g232" /><g
             id="g240"><g
               clip-path="url(#clipPath236)"
               opacity="0.5"
               id="g238" /></g></g><g
           id="g242"><g
             id="g244" /><g
             id="g252"><g
               clip-path="url(#clipPath248)"
               opacity="0.5"
               id="g250" /></g></g><g
           id="g254"><g
             id="g256" /><g
             id="g264"><g
               clip-path="url(#clipPath260)"
               opacity="0.5"
               id="g262" /></g></g></g></g></g></svg>
