<?xml version="1.0" encoding="UTF-8" standalone="no"?>
<!-- Created with Inkscape (http://www.inkscape.org/) -->
<svg
   xmlns:svg="http://www.w3.org/2000/svg"
   xmlns="http://www.w3.org/2000/svg"
   version="1.0"
   width="1009.8425"
   height="154.20473"
   id="svg63282">
  <defs
     id="defs63284" />
  <g
     transform="translate(-279.1598,10.19748)"
     id="layer1">
    <path
       d="M 288.01803,131.35267 L 364.73534,-1.3427834 L 441.26275,131.35267 L 288.01803,131.35267 M 364.73534,4.4570582 L 293.12782,128.35286 L 436.17291,128.35286 L 364.73534,4.4570582 M 371.51517,124.65292 C 358.61555,124.65292 345.89603,122.85301 332.98643,121.05311 L 317.72698,89.854135 L 320.6069,89.854135 C 323.15681,94.35395 325.69674,98.853853 328.92655,102.8537 C 337.74625,114.45329 349.47589,118.95311 363.70538,118.95311 C 375.25501,118.95311 389.52449,114.45329 389.52449,100.55373 C 389.52449,89.854135 381.01477,86.05426 371.85516,83.754381 C 365.74534,81.954385 359.13556,80.454476 353.1858,78.254539 C 345.38599,75.354662 339.45619,68.954821 339.45619,60.25519 C 339.45619,48.255565 349.11586,38.055937 361.34547,38.055937 C 372.7051,38.055937 381.35476,40.255874 381.35476,40.255874 L 396.45432,66.054944 L 393.75442,66.054944 C 390.01449,60.25519 386.28462,54.355319 380.68484,50.055474 C 375.43503,46.355628 368.11523,43.355722 361.66551,43.355722 C 355.39572,43.355722 349.47589,47.055568 349.47589,53.855349 C 349.47589,63.355037 359.81554,65.254975 367.26529,67.054884 L 379.14485,69.954848 C 394.59438,73.654694 408.68385,78.254539 408.68385,97.253915 C 408.68385,117.95317 389.16455,124.65292 371.51517,124.65292 M 559.19873,135.15255 C 541.21933,135.15255 523.90994,129.0528 507.95047,121.35302 L 523.7399,85.55429 C 533.41961,92.554042 542.90923,99.353823 555.46886,99.353823 C 558.86871,99.353823 565.65851,98.653795 565.65851,93.354011 C 565.65851,87.954197 560.56868,86.754287 553.95889,84.754321 C 539.00942,80.354447 515.2602,76.054602 515.2602,44.555719 C 515.2602,12.456749 539.86933,0.35718359 568.52837,0.35718359 C 582.27794,0.35718359 600.11731,5.2570273 611.12697,13.456776 L 597.04739,45.755629 C 597.04739,45.755629 585.68785,35.556001 573.11824,35.556001 C 565.99851,35.556001 561.59863,37.555967 561.59863,41.955754 C 561.59863,46.555598 568.71837,48.255565 572.9482,49.555504 C 587.87772,54.155349 612.32688,59.055192 612.32688,90.654104 C 612.32688,122.85301 588.38775,135.15255 559.19873,135.15255 M 699.26395,131.35267 L 695.46407,115.25326 L 661.03521,115.25326 L 656.44543,131.35267 L 608.57706,131.35267 L 653.05547,3.9570884 L 704.96376,3.9570884 L 747.3623,131.35267 L 699.26395,131.35267 M 678.17464,45.15563 L 667.13505,85.05432 L 689.16426,85.05432 L 678.17464,45.15563 M 833.75932,131.35267 L 795.46065,69.254821 L 795.46065,131.35267 L 751.26212,131.35267 L 751.26212,3.9570884 L 795.46065,3.9570884 L 833.75932,66.354943 L 833.75932,3.9570884 L 877.55782,3.9570884 L 877.55782,131.35267 L 833.75932,131.35267 M 941.75559,131.05276 L 927.15608,131.35267 L 891.95735,131.35267 L 891.95735,3.9570884 L 925.4562,3.9570884 L 940.05571,4.1570588 C 981.4543,4.1570588 1013.1531,19.056561 1013.1531,68.054911 C 1013.1531,114.45329 983.25421,131.05276 941.75559,131.05276 M 943.05561,42.155812 L 937.85577,42.155812 L 937.85577,93.354011 L 943.05561,93.354011 C 958.85502,93.354011 967.15471,85.35432 967.15471,68.55488 C 967.15471,52.955439 959.15502,42.155812 943.05561,42.155812 M 1087.1506,135.15255 C 1047.952,135.15255 1018.053,108.35354 1018.053,67.754911 C 1018.053,28.056279 1047.1519,0.25724209 1086.9506,0.25724209 C 1126.8493,0.25724209 1157.5482,27.356251 1157.5482,67.754911 C 1157.5482,108.15348 1131.6491,135.15255 1087.1506,135.15255 M 1087.6506,42.655781 C 1073.2511,42.655781 1064.4514,52.955439 1064.4514,67.554941 C 1064.4514,82.654413 1073.4511,92.654071 1087.6506,92.654071 C 1102.0501,92.654071 1111.2498,82.654413 1111.2498,67.554941 C 1111.2498,52.655439 1101.9501,42.655781 1087.6506,42.655781 M 1226.4458,93.253982 L 1273.8443,93.253982 L 1273.8443,131.35267 L 1151.6484,131.35267 L 1206.2466,42.155812 L 1163.3481,42.155812 L 1163.3481,3.9570884 L 1280.144,3.9570884 L 1226.4458,93.253982"
       style="fill:#1a4684;fill-rule:nonzero;stroke:none"
       id="path64136" />
  </g>
</svg>
