<svg width="95" height="40" viewBox="0 0 95 40" fill="none" xmlns="http://www.w3.org/2000/svg">
<path d="M18.6667 28.1V27.3H10.2333V28.1C10.6667 28.1333 11.5667 28.3333 11.9667 28.5C12.5333 28.7333 12.7 29.1333 12.7 29.6667V31.5667C12.3 32.9333 11.0667 33.8667 9.46667 33.8667C6.9 33.8667 5.16667 30.7333 5.16667 26.2333C5.16667 21.6333 6.8 18.9333 9.83334 18.9333C12.2333 18.9333 13.5667 20.5 14.8333 24.1667H15.8333L15.7333 18.1H14.8L14.1333 19.0667C13.0667 18.5 11.7 17.9333 9.73334 17.9333C4.46667 17.9333 0.76667 21.4667 0.76667 26.6667C0.76667 32.3 4.46667 34.9667 8.9 34.9667C11.1667 34.9667 12.9667 34.2667 14.3667 33.6L15.7667 34.9667L16.5 34.8333V29.5333C16.5 29 16.6333 28.5667 17.2333 28.3667C17.6667 28.2333 18.2 28.1333 18.6667 28.1ZM29.3 25.5667C29.3 24.2 28.4333 23.2667 27.1667 23.2667C26 23.2667 24.9667 23.9 23.9667 25.1667H23.9333V23.5667L23.7667 23.4L18.6333 23.6667V24.3667C19.0667 24.4 19.5333 24.5 19.8333 24.7C20.2 24.9667 20.4333 25.4667 20.4667 25.9667V32.6333C20.4667 33.1667 20.3 33.5333 19.8333 33.7C19.5 33.8 19.2 33.8333 18.7667 33.8667V34.6H26.1V33.8667C25.7333 33.8333 24.9 33.7333 24.5333 33.5667C24.1 33.3667 23.8667 33.0333 23.8667 32.5V26.1667C24.0667 25.8333 24.8333 24.9333 25.9 24.9333C25.8667 25.1 25.7 25.5667 25.7 26.1C25.7 27.1667 26.5 27.6333 27.4667 27.6333C28.5667 27.6333 29.3 26.7 29.3 25.5667ZM42 29.0333C42 25.6667 39.7333 23.2333 35.9 23.2333C32.1667 23.2333 29.8 25.6333 29.8 29.1C29.8 32.7667 32.5333 34.9667 35.8 34.9667C39.9 34.9667 42 32.3333 42 29.0333ZM38.2333 29C38.2333 31.8333 37.6333 34.1333 35.9667 34.1333C34.2 34.1333 33.6333 31.7667 33.6333 28.9667C33.6333 26.7 34.0333 24.0667 35.9667 24.0667C37.7667 24.0667 38.2333 26.5 38.2333 29ZM56.3 34.3667V33.6667C55.8667 33.6333 55.3667 33.6 55.0667 33.4C54.7 33.1333 54.5 32.7667 54.4333 32.2667V23.5667L54.2667 23.4L49.1 23.7V24.4333C49.6333 24.4667 50.2 24.5 50.4333 24.7C50.8 24.9667 50.9667 25.3667 51 25.8667V31.9333C50.7667 32.4 50.1 33.4 48.7667 33.4C48 33.4 47.3667 32.6 47.3667 31V23.5667L47.2333 23.4L42.0667 23.7V24.4C42.5 24.4333 43 24.5333 43.3 24.7333C43.6667 25 43.8667 25.3333 43.9333 25.9333V31.0333C43.9333 33.2667 44.8333 34.9333 47.0667 34.9333C49.1333 34.9333 50.0667 33.9667 50.9667 33.0667H51.0333V34.5333L51.2 34.7L56.3 34.3667ZM69.3667 29.1667C69.3667 25.6 67.3 23.2333 64.5333 23.2333C63.0667 23.2333 61.8667 24.2 61.3 24.8L61.2 24.7667V23.5333L61.0333 23.4L55.8667 23.6667V24.3667C56.3 24.4 56.9 24.5333 57.1667 24.7333C57.5333 25 57.7333 25.4333 57.8 25.9333C57.8 27.6667 57.8 35.6667 57.8 37.9333C57.8 38.4667 57.6333 38.9 57.1667 39.0333C56.8333 39.1333 56.2667 39.2333 55.8333 39.2333V39.9667H63.6667V39.2333C63.2333 39.2 62.2667 39.0333 61.9 38.8667C61.4667 38.7 61.2333 38.3 61.2333 37.7667C61.2333 36.9667 61.2333 35.1 61.2333 34.1H61.3333C61.8667 34.5 62.7333 34.8333 64.0667 34.8333C66.8333 34.9 69.3667 32.5 69.3667 29.1667ZM65.6333 29.2C65.6333 32.2667 64.6333 33.9333 63.2333 33.9333C62 33.9333 61.4667 32.9333 61.2333 32.2V25.7667C61.7 25.1333 62.2 24.7333 63.1333 24.7333C64.9667 24.7333 65.6333 27 65.6333 29.2Z" fill="#13322B"/>
<path d="M15.9667 10.9H15.1C14.5667 12.2 13.8 13.6 12.9667 14.6333C12.5 15.1667 11.7667 15.3333 9.13333 15.3333H4.93333L15.6667 0.633333V0H1.46667L0.966667 4.9H1.9C3.2 2.5 3.86667 1.56667 4.5 1.3C5 1.06667 5.66667 0.966667 7.03333 0.966667H10.7667L0 15.7V16.3333H15.4333L15.9667 10.9ZM29.9667 16.0667V15.3333C29.5333 15.3 29.0333 15.2667 28.7333 15.0667C28.3667 14.8 28.1667 14.4333 28.1 13.9333V5.26667L27.9333 5.1L22.7667 5.4V6.13333C23.3 6.16667 23.8667 6.2 24.1 6.4C24.4667 6.66667 24.6333 7.06667 24.6667 7.56667V13.6333C24.4333 14.1 23.7667 15.1 22.4333 15.1C21.6667 15.1 21.0333 14.3 21.0333 12.7V5.26667L20.9 5.1L15.7333 5.4V6.1C16.1667 6.13333 16.6667 6.23333 16.9667 6.43333C17.3333 6.7 17.5333 7.03333 17.6 7.63333V12.7333C17.6 14.9667 18.5 16.6333 20.7333 16.6333C22.8 16.6333 23.7333 15.6667 24.6333 14.7667H24.7V16.2333L24.8667 16.4L29.9667 16.0667ZM41.2333 7.26667C41.2333 5.9 40.3667 4.96667 39.1 4.96667C37.9333 4.96667 36.9 5.6 35.9 6.86667H35.8667V5.26667L35.7 5.1L30.6 5.4V6.1C31.0333 6.13333 31.5 6.23333 31.8 6.43333C32.1667 6.7 32.4 7.2 32.4333 7.7V14.3667C32.4333 14.9 32.2667 15.2667 31.8 15.4333C31.4667 15.5333 31.1667 15.5667 30.7333 15.6V16.3333H38.0667V15.6C37.7 15.5667 36.8667 15.4667 36.5 15.3C36.0667 15.1 35.8333 14.7667 35.8333 14.2333V7.9C36.0333 7.56667 36.8 6.66667 37.8667 6.66667C37.8333 6.83333 37.6667 7.3 37.6667 7.83333C37.6667 8.9 38.4667 9.36667 39.4333 9.36667C40.5333 9.33333 41.2333 8.4 41.2333 7.26667ZM60.0333 16.3V15.5C59.6667 15.4667 59.2 15.4 58.8 15.3C58.0667 15.1 57.7333 14.9 57.4 13.9667C57.3 13.7 56.7667 12.2333 56.4 11.3C55.6667 9.43333 54 8.66667 52.4 8.26667V8.03333C55 7.33333 56.9667 6.33333 56.9667 3.73333C56.9667 1.06667 54.5333 0 50.6667 0H41.7V0.8C42.1333 0.833333 43.1333 1 43.6 1.2C44.2 1.43333 44.3333 1.83333 44.3333 2.36667V14.0333C44.3333 14.5667 44.1667 15 43.6 15.2C43.3 15.3333 42.1333 15.4333 41.7 15.4667V16.2667H50.7667V15.4667C50.3333 15.4333 49.3333 15.2667 49.0333 15.1333C48.5 14.9 48.3 14.5 48.3 13.9667V8.7H48.6C50.4 8.7 51.5667 9.83333 52.3333 11.7333C52.9667 13.3667 53.3333 14.5667 53.7 16.3333H60.0333V16.3ZM52.6667 4.03333C52.6667 6.6 50.9 7.7 48.8 7.7H48.3333V0.966667H49.2C51.3333 0.966667 52.6667 1.86667 52.6667 4.03333ZM71.9 10.7333C71.9 7.36667 69.6333 4.93333 65.8 4.93333C62.0667 4.93333 59.7 7.33333 59.7 10.8C59.7 14.4667 62.4333 16.6667 65.7 16.6667C69.8 16.6667 71.9 14.0333 71.9 10.7333ZM68.1 10.7C68.1 13.5333 67.5 15.8333 65.8333 15.8333C64.0667 15.8333 63.5 13.4667 63.5 10.6667C63.5 8.4 63.9 5.76667 65.8333 5.76667C67.6333 5.76667 68.1 8.2 68.1 10.7ZM82.3 12.9667C82.3 11 80.9333 9.96667 79 9.36667C77.1 8.76667 76.2667 8.5 76.2667 7.3C76.2667 6.46667 76.9667 5.83333 78 5.83333C79.3333 5.83333 80.6 7.13333 81.0667 8.66667H81.7667L81.6 4.93333H80.8333L80.5667 5.6C79.8667 5.26667 78.7 4.93333 77.6 4.93333C74.8667 4.93333 73.2667 6.5 73.2667 8.33333C73.2667 10.5667 75 11.4 76.5 11.9C78.1667 12.4333 79.3 12.8333 79.3 14.0333C79.3 15.1333 78.6333 15.7667 77.4 15.7667C75.5333 15.7667 74.0667 13.7 73.6667 12.3333H72.9667L73.1 16.4H73.9L74.2667 15.6333C74.7667 16 76.1 16.6333 77.6333 16.6333C80.2 16.7 82.3 15.3667 82.3 12.9667ZM94.5 13.6333L93.7 13.0667C92.9 14.4 91.9333 15.1333 90.5 15.1333C88.0333 15.1333 86.9333 13.4333 86.9333 10.3333H94.1667V9.66667C94.1667 7.13333 92.8 4.93333 89.0333 4.93333C85.4 4.93333 83.2667 7.7 83.2667 10.7333C83.2667 14.0667 85.1667 16.6667 89.2667 16.6667C91.6333 16.6667 93.5333 15.3333 94.5 13.6333ZM90.5667 9.4L86.9333 9.43333C86.9667 7 87.7667 5.76667 88.9 5.76667C90.3 5.8 90.5667 7.53333 90.5667 9.4Z" fill="#13322B"/>
</svg>
